<svg width="26" height="20" viewBox="0 0 26 20" fill="none" xmlns="http://www.w3.org/2000/svg">
<path fill-rule="evenodd" clip-rule="evenodd" d="M3.11089 0.66626H23.1109C24.3331 0.66626 25.3331 1.66626 25.3331 2.88848V17.3329C25.3331 18.5551 24.3331 19.5551 23.1109 19.5551H3.11089C1.88867 19.5551 0.888672 18.5551 0.888672 17.3329V2.88848C0.888672 1.66626 1.88867 0.66626 3.11089 0.66626ZM3.11089 2.88848V17.3329H11.9998V2.88848H3.11089ZM23.1109 17.3329H14.222V2.88848H23.1109V17.3329ZM21.9998 6.77737H15.3331V8.44404H21.9998V6.77737ZM15.3331 9.55515H21.9998V11.2218H15.3331V9.55515ZM21.9998 12.3329H15.3331V13.9996H21.9998V12.3329Z" fill="white"/>
</svg>
