<svg width="17" height="16" viewBox="0 0 17 16" fill="none" xmlns="http://www.w3.org/2000/svg">
<path fill-rule="evenodd" clip-rule="evenodd" d="M8.33337 0C6.12337 0 4.33337 1.79 4.33337 4C4.33337 6.21 6.12337 8 8.33337 8C10.5434 8 12.3334 6.21 12.3334 4C12.3334 1.79 10.5434 0 8.33337 0ZM10.3334 4C10.3334 2.9 9.43337 2 8.33337 2C7.23337 2 6.33337 2.9 6.33337 4C6.33337 5.1 7.23337 6 8.33337 6C9.43337 6 10.3334 5.1 10.3334 4ZM14.3334 14C14.1334 13.29 11.0334 12 8.33337 12C5.64337 12 2.56337 13.28 2.33337 14H14.3334ZM0.333374 14C0.333374 11.34 5.66337 10 8.33337 10C11.0034 10 16.3334 11.34 16.3334 14V16H0.333374V14Z" fill="white"/>
</svg>
